<mxfile host="Electron" modified="2023-12-29T02:36:44.869Z" agent="Mozilla/5.0 (Windows NT 10.0; Win64; x64) AppleWebKit/537.36 (KHTML, like Gecko) draw.io/22.1.15 Chrome/120.0.6099.109 Electron/28.1.0 Safari/537.36" etag="Vj9EN2ac2_eFOU00wnou" version="22.1.15" type="device">
  <diagram name="Page-1" id="WivWE3mhOam1CFP_KGNA">
    <mxGraphModel dx="850" dy="583" grid="1" gridSize="10" guides="1" tooltips="1" connect="1" arrows="1" fold="1" page="1" pageScale="1" pageWidth="850" pageHeight="1100" math="0" shadow="0">
      <root>
        <mxCell id="0" />
        <mxCell id="1" parent="0" />
        <mxCell id="025VR_v_wAJTkgm_SIhR-11" value="" style="edgeStyle=orthogonalEdgeStyle;rounded=0;orthogonalLoop=1;jettySize=auto;html=1;shape=flexArrow;fillColor=#fad7ac;strokeColor=#999999;gradientColor=#B1DDF0;gradientDirection=east;" edge="1" parent="1">
          <mxGeometry relative="1" as="geometry">
            <mxPoint x="269" y="220" as="sourcePoint" />
            <mxPoint x="349" y="220" as="targetPoint" />
          </mxGeometry>
        </mxCell>
        <mxCell id="025VR_v_wAJTkgm_SIhR-12" value="实例化&lt;br&gt;Instantication" style="edgeLabel;html=1;align=center;verticalAlign=middle;resizable=0;points=[];" vertex="1" connectable="0" parent="025VR_v_wAJTkgm_SIhR-11">
          <mxGeometry x="-0.0963" y="-2" relative="1" as="geometry">
            <mxPoint y="28" as="offset" />
          </mxGeometry>
        </mxCell>
        <mxCell id="025VR_v_wAJTkgm_SIhR-1" value="函数模版 Template" style="swimlane;whiteSpace=wrap;html=1;startSize=40;fillColor=#fad7ac;strokeColor=#b46504;fontSize=14;" vertex="1" parent="1">
          <mxGeometry x="30" y="130" width="240" height="180" as="geometry">
            <mxRectangle x="330" y="250" width="90" height="30" as="alternateBounds" />
          </mxGeometry>
        </mxCell>
        <mxCell id="025VR_v_wAJTkgm_SIhR-4" value="&lt;div style=&quot;border-color: var(--border-color); font-family: Consolas, &amp;quot;Courier New&amp;quot;, monospace; font-size: 13px;&quot;&gt;template&amp;lt;typename T&amp;gt;&lt;/div&gt;&lt;div style=&quot;border-color: var(--border-color); font-family: Consolas, &amp;quot;Courier New&amp;quot;, monospace; font-size: 13px;&quot;&gt;T maximum(T a, T b) {&lt;/div&gt;&lt;div style=&quot;border-color: var(--border-color); font-family: Consolas, &amp;quot;Courier New&amp;quot;, monospace; font-size: 13px;&quot;&gt;&amp;nbsp; &amp;nbsp; return a &amp;gt; b ? a : b;&amp;nbsp;&lt;/div&gt;&lt;div style=&quot;border-color: var(--border-color); font-family: Consolas, &amp;quot;Courier New&amp;quot;, monospace; font-size: 13px;&quot;&gt;}&lt;/div&gt;" style="text;html=1;strokeColor=#b46504;fillColor=#fad7ac;align=left;verticalAlign=middle;whiteSpace=wrap;rounded=0;" vertex="1" parent="025VR_v_wAJTkgm_SIhR-1">
          <mxGeometry y="40" width="240" height="140" as="geometry" />
        </mxCell>
        <mxCell id="025VR_v_wAJTkgm_SIhR-5" value="&lt;font style=&quot;font-size: 14px;&quot;&gt;函数实例 Instance&lt;/font&gt;" style="swimlane;whiteSpace=wrap;html=1;startSize=40;fillColor=#b1ddf0;strokeColor=#10739e;" vertex="1" parent="1">
          <mxGeometry x="350" y="50" width="360" height="340" as="geometry" />
        </mxCell>
        <mxCell id="025VR_v_wAJTkgm_SIhR-6" value="&lt;div style=&quot;border-color: var(--border-color); font-family: Consolas, &amp;quot;Courier New&amp;quot;, monospace; font-size: 13px;&quot;&gt;&lt;span style=&quot;background-color: initial;&quot;&gt;int maximum(int a, int b) {&lt;/span&gt;&lt;br&gt;&lt;/div&gt;&lt;div style=&quot;border-color: var(--border-color); font-family: Consolas, &amp;quot;Courier New&amp;quot;, monospace; font-size: 13px;&quot;&gt;&amp;nbsp; &amp;nbsp; return a &amp;gt; b ? a : b;&amp;nbsp;&lt;/div&gt;&lt;div style=&quot;border-color: var(--border-color); font-family: Consolas, &amp;quot;Courier New&amp;quot;, monospace; font-size: 13px;&quot;&gt;}&lt;/div&gt;" style="text;html=1;strokeColor=#10739e;fillColor=#b1ddf0;align=left;verticalAlign=middle;whiteSpace=wrap;rounded=0;" vertex="1" parent="025VR_v_wAJTkgm_SIhR-5">
          <mxGeometry y="40" width="360" height="60" as="geometry" />
        </mxCell>
        <mxCell id="025VR_v_wAJTkgm_SIhR-7" value="&lt;div style=&quot;border-color: var(--border-color); font-family: Consolas, &amp;quot;Courier New&amp;quot;, monospace; font-size: 13px;&quot;&gt;&lt;span style=&quot;background-color: initial;&quot;&gt;long long maximum(long long a, long long b) {&lt;/span&gt;&lt;br&gt;&lt;/div&gt;&lt;div style=&quot;border-color: var(--border-color); font-family: Consolas, &amp;quot;Courier New&amp;quot;, monospace; font-size: 13px;&quot;&gt;&amp;nbsp; &amp;nbsp; return a &amp;gt; b ? a : b;&amp;nbsp;&lt;/div&gt;&lt;div style=&quot;border-color: var(--border-color); font-family: Consolas, &amp;quot;Courier New&amp;quot;, monospace; font-size: 13px;&quot;&gt;}&lt;/div&gt;" style="text;html=1;strokeColor=#10739e;fillColor=#b1ddf0;align=left;verticalAlign=middle;whiteSpace=wrap;rounded=0;" vertex="1" parent="025VR_v_wAJTkgm_SIhR-5">
          <mxGeometry y="100" width="360" height="60" as="geometry" />
        </mxCell>
        <mxCell id="025VR_v_wAJTkgm_SIhR-8" value="&lt;div style=&quot;border-color: var(--border-color); font-family: Consolas, &amp;quot;Courier New&amp;quot;, monospace; font-size: 13px;&quot;&gt;&lt;span style=&quot;background-color: initial;&quot;&gt;double maximum(double a, double b) {&lt;/span&gt;&lt;br&gt;&lt;/div&gt;&lt;div style=&quot;border-color: var(--border-color); font-family: Consolas, &amp;quot;Courier New&amp;quot;, monospace; font-size: 13px;&quot;&gt;&amp;nbsp; &amp;nbsp; return a &amp;gt; b ? a : b;&amp;nbsp;&lt;/div&gt;&lt;div style=&quot;border-color: var(--border-color); font-family: Consolas, &amp;quot;Courier New&amp;quot;, monospace; font-size: 13px;&quot;&gt;}&lt;/div&gt;" style="text;html=1;strokeColor=#10739e;fillColor=#b1ddf0;align=left;verticalAlign=middle;whiteSpace=wrap;rounded=0;" vertex="1" parent="025VR_v_wAJTkgm_SIhR-5">
          <mxGeometry y="160" width="360" height="60" as="geometry" />
        </mxCell>
        <mxCell id="025VR_v_wAJTkgm_SIhR-9" value="&lt;div style=&quot;border-color: var(--border-color); font-family: Consolas, &amp;quot;Courier New&amp;quot;, monospace; font-size: 13px;&quot;&gt;&lt;span style=&quot;background-color: initial;&quot;&gt;long double maximum(long double a, long double b) {&lt;/span&gt;&lt;br&gt;&lt;/div&gt;&lt;div style=&quot;border-color: var(--border-color); font-family: Consolas, &amp;quot;Courier New&amp;quot;, monospace; font-size: 13px;&quot;&gt;&amp;nbsp; &amp;nbsp; return a &amp;gt; b ? a : b;&amp;nbsp;&lt;/div&gt;&lt;div style=&quot;border-color: var(--border-color); font-family: Consolas, &amp;quot;Courier New&amp;quot;, monospace; font-size: 13px;&quot;&gt;}&lt;/div&gt;" style="text;html=1;strokeColor=#10739e;fillColor=#b1ddf0;align=left;verticalAlign=middle;whiteSpace=wrap;rounded=0;" vertex="1" parent="025VR_v_wAJTkgm_SIhR-5">
          <mxGeometry y="220" width="360" height="60" as="geometry" />
        </mxCell>
        <mxCell id="025VR_v_wAJTkgm_SIhR-10" value="&lt;div style=&quot;border-color: var(--border-color); font-family: Consolas, &amp;quot;Courier New&amp;quot;, monospace; font-size: 13px;&quot;&gt;... ...&lt;/div&gt;" style="text;html=1;strokeColor=#10739e;fillColor=#b1ddf0;align=left;verticalAlign=middle;whiteSpace=wrap;rounded=0;" vertex="1" parent="025VR_v_wAJTkgm_SIhR-5">
          <mxGeometry y="280" width="360" height="60" as="geometry" />
        </mxCell>
      </root>
    </mxGraphModel>
  </diagram>
</mxfile>
